<?xml version="1.0" encoding="iso-8859-1"?>
<!-- Generator: Adobe Illustrator 19.0.0, SVG Export Plug-In . SVG Version: 6.00 Build 0)  -->
<svg version="1.1" id="Capa_1" xmlns="http://www.w3.org/2000/svg" xmlns:xlink="http://www.w3.org/1999/xlink" x="0px" y="0px"
	 viewBox="0 0 512 512" style="enable-background:new 0 0 512 512;" xml:space="preserve">
<g>
	<g>
		<path d="M446.155,302l-60-150H271v-16c0-24.813-20.187-45-45-45s-45,20.187-45,45v16H0v300h61c0,33.084,26.916,60,60,60
			s60-26.916,60-60h150c0,33.084,26.916,60,60,60s60-26.916,60-60h61V302H446.155z M413.845,302H331v-68.787l39.521-39.522
			L413.845,302z M211,136c0-8.271,6.729-15,15-15s15,6.729,15,15v16h-30V136z M121,482c-16.542,0-30-13.458-30-30s13.458-30,30-30
			s30,13.458,30,30S137.542,482,121,482z M391,482c-16.542,0-30-13.458-30-30s13.458-30,30-30s30,13.458,30,30S407.542,482,391,482z
			 M482,362h-31v30h31v30h-39.072c-10.391-17.916-29.769-30-51.928-30s-41.537,12.084-51.928,30H172.928
			c-10.391-17.916-29.769-30-51.928-30s-41.537,12.084-51.928,30H30v-60h31v-30H30V182c36.742,0,271.372,0,309.787,0L301,220.787
			V332c20.028,0,162.711,0,181,0V362z"/>
	</g>
</g>
<g>
	<g>
		<polygon points="181,272 181,242 151,242 151,272 121,272 121,302 151,302 151,332 181,332 181,302 211,302 211,272 		"/>
	</g>
</g>
<g>
	<g>
		<rect x="211" width="30" height="61"/>
	</g>
</g>
<g>
	<g>
		<rect x="113.501" y="36.676" transform="matrix(0.7071 -0.7071 0.7071 0.7071 -10.7968 110.9263)" width="30" height="63.639"/>
	</g>
</g>
<g>
	<g>
		<rect x="291.687" y="53.501" transform="matrix(0.7071 -0.7071 0.7071 0.7071 46.3158 248.8172)" width="63.639" height="30"/>
	</g>
</g>
<g>
</g>
<g>
</g>
<g>
</g>
<g>
</g>
<g>
</g>
<g>
</g>
<g>
</g>
<g>
</g>
<g>
</g>
<g>
</g>
<g>
</g>
<g>
</g>
<g>
</g>
<g>
</g>
<g>
</g>
</svg>
