<?xml version="1.0" encoding="iso-8859-1"?>
<!-- Generator: Adobe Illustrator 19.0.0, SVG Export Plug-In . SVG Version: 6.00 Build 0)  -->
<svg version="1.1" id="Capa_1" xmlns="http://www.w3.org/2000/svg" xmlns:xlink="http://www.w3.org/1999/xlink" x="0px" y="0px"
	 viewBox="0 0 512 512" style="enable-background:new 0 0 512 512;" xml:space="preserve">
<g>
	<g>
		<path d="M437.271,75.728c-99.657-99.659-262.899-99.646-362.543,0c-99.631,99.629-99.646,260.899,0,360.543
			c99.658,99.66,262.899,99.646,362.543,0C536.902,336.643,536.917,175.372,437.271,75.728z M416.064,96.937
			c18.121,18.121,32.756,38.795,43.598,61.204c-25.599-9.877-51.9-11.05-73.334-2.729c-3.992-5.55-8.583-10.96-13.681-16.058
			c-5.086-5.086-10.482-9.666-16.016-13.651c8.44-21.405,7.293-47.293-2.732-72.739C376.731,63.842,397.735,78.609,416.064,96.937z
			 M371.597,190.905c2.71,8.131,1.417,11.706,1.05,12.074c-0.368,0.367-3.941,1.661-12.074-1.05
			c-9.708-3.236-20.768-10.584-30.343-20.158s-16.922-20.635-20.158-30.343c-2.71-8.133-1.417-11.707-1.05-12.075
			c0.191-0.19,1.247-0.631,3.355-0.631c1.954,0,4.81,0.377,8.719,1.681c9.709,3.236,20.768,10.584,30.343,20.159
			C361.013,170.137,368.361,181.196,371.597,190.905z M311.341,37.742c18.248,24.824,25.054,53.101,18.45,73.964
			c-10.861-3.486-20.755-3.905-29.026-1.333c-31.999-28.456-72.719-45.691-115.871-48.814c-15.72-1.137-31.395-0.38-46.695,2.164
			C191.409,31.375,254.592,23.708,311.341,37.742z M74.673,121.466c62.179-44.242,148.118-39.413,205.143,10.416
			c-0.509,1.786-0.877,3.646-1.113,5.572C215.834,141.424,133.806,186.318,64.125,256c-11.078,11.077-21.595,22.538-31.49,34.253
			C23.701,231.425,37.808,170.663,74.673,121.466z M95.938,415.064c-25.146-25.146-43.602-55.199-54.482-87.996
			c13.209-17.17,27.935-33.917,43.877-49.86c65.296-65.297,143.499-108.281,198.699-110.002
			c5.255,12.238,13.947,24.731,24.989,35.773c11.039,11.04,23.529,19.731,35.764,24.985
			c-1.803,54.674-44.767,132.476-109.993,197.704c-16.002,16.002-32.816,30.778-50.055,44.026
			C151.53,458.833,121.196,440.323,95.938,415.064z M389.466,437.825c-48.706,35.551-109.007,49.354-167.772,40.586
			c11.734-9.908,23.212-20.44,34.306-31.535c69.588-69.588,114.457-151.204,118.526-213.559c1.949-0.238,3.828-0.617,5.634-1.134
			C431.932,290.732,436.165,373.763,389.466,437.825z M451.44,326.61c-3.052-42.267-20.641-82.831-49.807-115.395
			c2.561-8.258,2.143-18.132-1.329-28.969c21.056-6.578,50.07,0.256,74.791,18.302c14.421,57.134,6.361,119.97-26.153,172.891
			C451.703,358.002,452.572,342.276,451.44,326.61z"/>
	</g>
</g>
<g>
</g>
<g>
</g>
<g>
</g>
<g>
</g>
<g>
</g>
<g>
</g>
<g>
</g>
<g>
</g>
<g>
</g>
<g>
</g>
<g>
</g>
<g>
</g>
<g>
</g>
<g>
</g>
<g>
</g>
</svg>
