<svg id="Capa_1" enable-background="new 0 0 512 512" height="512" viewBox="0 0 512 512" width="512" xmlns="http://www.w3.org/2000/svg"><path d="m452 331h15c24.813 0 45-20.187 45-45v-30c0-24.813-20.187-45-45-45h-15v-30h-30v-181h-392v241h-30v45c0 24.813 20.187 45 45 45h196v16c0 5.258.915 10.305 2.58 15h-17.58c-24.813 0-45 20.187-45 45 0 11.517 4.354 22.032 11.495 30-7.141 7.968-11.495 18.483-11.495 30 0 24.813 20.187 45 45 45h286c0-21.777 0-130.476 0-150h-62.58c1.665-4.695 2.58-9.742 2.58-15zm15-90c8.271 0 15 6.729 15 15v30c0 8.271-6.729 15-15 15h-15v-60zm-407-211h332v151h-151v60h-181zm-15 271c-8.271 0-15-6.729-15-15v-15h211v30zm437 181h-256c-8.271 0-15-6.729-15-15s6.729-15 15-15h256zm0-60h-256c-8.271 0-15-6.729-15-15s6.729-15 15-15h256zm-196-60c-8.271 0-15-6.729-15-15v-136h151v136c0 8.271-6.729 15-15 15z"/></svg>