<?xml version="1.0" encoding="iso-8859-1"?>
<!-- Generator: Adobe Illustrator 19.0.0, SVG Export Plug-In . SVG Version: 6.00 Build 0)  -->
<svg version="1.1" id="Capa_1" xmlns="http://www.w3.org/2000/svg" xmlns:xlink="http://www.w3.org/1999/xlink" x="0px" y="0px"
	 viewBox="0 0 512 512" style="enable-background:new 0 0 512 512;" xml:space="preserve">
<g>
	<g>
		<path d="M457.189,134c6.133-7.691,9.811-17.421,9.811-28c0-24.813-20.187-45-45-45c-19.555,0-36.228,12.542-42.42,30H301V0h-90v91
			h-78.58C126.228,73.542,109.555,61,90,61c-24.813,0-45,20.187-45,45c0,10.579,3.678,20.309,9.811,28L0,221.698V241
			c0,49.626,40.374,90,90,90c49.626,0,90-40.374,90-90v-19.302L125.189,134c3.084-3.868,5.546-8.25,7.231-13H211v301h-90v90h270v-90
			h-90V121h78.58c1.685,4.75,4.147,9.132,7.231,13L332,221.698V241c0,49.626,40.374,90,90,90c49.626,0,90-40.374,90-90v-19.302
			L457.189,134z M90,91c8.271,0,15,6.729,15,15s-6.729,15-15,15s-15-6.729-15-15S81.729,91,90,91z M90,301
			c-33.084,0-60-27.016-60-60.1h120C150,273.984,123.084,301,90,301z M137.936,211H42.064l38.175-61.079
			C83.384,150.62,86.647,151,90,151c3.353,0,6.616-0.38,9.761-1.079L137.936,211z M241,30h30v392h-30V30z M361,452v30H151v-30
			C160.955,452,350.817,452,361,452z M422,91c8.271,0,15,6.729,15,15s-6.729,15-15,15s-15-6.729-15-15S413.729,91,422,91z
			 M412.238,149.921C415.383,150.62,418.647,151,422,151c3.353,0,6.617-0.38,9.762-1.079L469.937,211h-95.873L412.238,149.921z
			 M422,301c-33.084,0-60-27.016-60-60.1h120C482,273.984,455.084,301,422,301z"/>
	</g>
</g>
<g>
</g>
<g>
</g>
<g>
</g>
<g>
</g>
<g>
</g>
<g>
</g>
<g>
</g>
<g>
</g>
<g>
</g>
<g>
</g>
<g>
</g>
<g>
</g>
<g>
</g>
<g>
</g>
<g>
</g>
</svg>
