<?xml version="1.0" encoding="iso-8859-1"?>
<!-- Generator: Adobe Illustrator 19.0.0, SVG Export Plug-In . SVG Version: 6.00 Build 0)  -->
<svg version="1.1" id="Capa_1" xmlns="http://www.w3.org/2000/svg" xmlns:xlink="http://www.w3.org/1999/xlink" x="0px" y="0px"
	 viewBox="0 0 512 512" style="enable-background:new 0 0 512 512;" xml:space="preserve">
<g>
	<g>
		<path d="M412.017,138.735c-31.282-13.698-56.054-38.47-69.752-69.752L338.331,60H173.669l-3.934,8.983
			c-13.698,31.282-38.47,56.054-69.752,69.752L91,142.669v33.859c0,80.343,32.933,161.126,90.831,217.709
			c20.003,19.527,42.556,36.14,67.032,49.38l7.138,3.86l7.137-3.861c22.473-12.158,43.382-27.206,62.151-44.728
			C386.441,341.748,421,259.181,421,176.528v-33.859L412.017,138.735z M391,176.528c0,75.08-32.222,150.01-86.188,200.435
			c-14.895,13.905-31.284,26.078-48.813,36.264c-19.29-11.204-37.161-24.788-53.206-40.451C151.577,322.723,121,249.359,121,176.528
			v-14.569c31.022-15.847,56.112-40.937,71.96-71.959h126.08c15.848,31.023,40.938,56.112,71.96,71.959V176.528z"/>
	</g>
</g>
<g>
	<g>
		<path d="M256,225c-8.271,0-15-6.729-15-15c0-6.042,3.596-11.468,9.159-13.825c6.713-2.843,14.754-0.418,22.059,6.659
			l20.875-21.546c-6.772-6.561-14.3-11.198-22.093-13.815V150h-30v17.571c-0.851,0.303-1.699,0.623-2.54,0.979
			C221.778,175.615,211,191.885,211,210c0,24.813,20.187,45,45,45c8.271,0,15,6.729,15,15c0,6.286-3.965,11.953-9.866,14.103
			c-7.699,2.805-16.674-0.999-24.606-10.445l-22.973,19.294c8.109,9.655,17.549,16.276,27.445,19.608V330h30v-17.573
			c0.134-0.047,0.268-0.088,0.401-0.136C289.105,305.843,301,288.847,301,270C301,245.187,280.813,225,256,225z"/>
	</g>
</g>
<g>
	<g>
		<path d="M458.756,89.653C420.786,85.997,391,53.912,391,15V0H121v15c0,38.912-29.786,70.997-67.756,74.653L31,85.134v91.393
			c0,98.007,39.695,193,108.908,260.621c31.961,31.228,69.032,54.684,110.183,72.32L256,512l5.909-2.532
			c41.15-17.636,78.222-41.092,110.183-72.32C441.305,369.527,481,274.534,481,176.527V85.134L458.756,89.653z M451.001,176.527H451
			c0,89.979-36.402,177.151-99.873,239.162c-27.768,27.129-59.745,47.631-95.127,63.604c-35.382-15.973-67.359-36.475-95.127-63.604
			C97.402,353.678,61,266.507,61,176.527v-57.595c45.917-6.597,82.335-43.015,88.932-88.932h212.137
			c6.597,45.917,43.015,82.335,88.932,88.932V176.527z"/>
	</g>
</g>
<g>
</g>
<g>
</g>
<g>
</g>
<g>
</g>
<g>
</g>
<g>
</g>
<g>
</g>
<g>
</g>
<g>
</g>
<g>
</g>
<g>
</g>
<g>
</g>
<g>
</g>
<g>
</g>
<g>
</g>
</svg>
