<svg id="Capa_1" enable-background="new 0 0 512 512" height="512" viewBox="0 0 512 512" width="512" xmlns="http://www.w3.org/2000/svg"><g><path d="m512 151v-90h-90v30h-90v150h-62v-150h-60v-30h-150v30h-60v360h270v-180h62v150h90v30h90v-90h-90v30h-60v-120h60v30h90v-90h-90v30h-60v-120h60v30zm-422-60h90v30h-90zm150 330h-210v-300h30v30h150v-30h30zm212-30h30v30h-30zm0-150h30v30h-30zm0-150h30v30h-30z"/><path d="m60 211h150v30h-150z"/><path d="m60 271h150v30h-150z"/><path d="m60 331h150v30h-150z"/></g></svg>