<?xml version="1.0" encoding="iso-8859-1"?>
<!-- Generator: Adobe Illustrator 19.0.0, SVG Export Plug-In . SVG Version: 6.00 Build 0)  -->
<svg version="1.1" id="Capa_1" xmlns="http://www.w3.org/2000/svg" xmlns:xlink="http://www.w3.org/1999/xlink" x="0px" y="0px"
	 viewBox="0 0 511.999 511.999" style="enable-background:new 0 0 511.999 511.999;" xml:space="preserve">
<g>
	<g>
		<path d="M478.574,114.995l24.736-17.669L414.673,8.688l-17.669,24.737L363.579,0l-21.203,21.203l36.959,36.959L361.666,82.9
			l-19.291-19.291l-21.203,21.203l21.203,21.203l-59.836,59.836c-40.839-30.673-99.451-27.768-137.067,9.85
			c-7.208,7.207-13.278,15.406-18.118,24.459c-33.306,1.772-64.219,15.471-87.896,39.149c-52.61,52.611-52.61,138.215,0,190.825
			l42.406,42.406c52.608,52.609,138.213,52.612,190.825,0c23.677-23.677,37.377-54.591,39.149-87.896
			c9.054-4.841,17.252-10.911,24.459-18.118c37.593-37.592,40.543-96.202,9.851-137.067l59.836-59.836l21.203,21.203l21.203-21.203
			l-19.29-19.29l24.737-17.669l36.959,36.959l21.203-21.203L478.574,114.995z M315.095,345.324
			c-13.576,13.575-27.478,17.053-33.231,19.908c-0.666,4.307,6.941,48.786-30.378,86.106c-40.919,40.92-107.5,40.919-148.421,0
			L60.66,408.933c-40.919-40.919-40.919-107.501,0-148.42c36.906-36.906,81.892-29.727,86.106-30.378
			c2.86-5.758,6.335-19.656,19.908-33.231c25.856-25.856,65.516-28.691,94.355-9.543l-76.92,76.92
			c-14.6,0.9-28.204,7.002-38.637,17.435c-10.434,10.435-16.536,24.038-17.436,38.638l-35.573,35.573l-21.203-21.203l-21.203,21.203
			l21.203,21.203l63.609,63.609l21.203,21.203l21.203-21.203l-21.203-21.203l35.573-35.573c14.6-0.9,28.204-7.002,38.638-17.435
			c10.434-10.434,16.536-24.038,17.436-38.638l76.92-76.921C343.767,279.778,340.979,319.441,315.095,345.324z M209.08,345.323
			c-11.718,11.719-30.685,11.721-42.405,0.001c-11.718-11.718-11.72-30.685,0-42.405c11.718-11.718,30.685-11.72,42.405,0
			C220.799,314.637,220.8,333.604,209.08,345.323z M157.408,375.795l-22.537,22.537l-21.204-21.203l22.537-22.537
			c2.545,4.299,5.642,8.31,9.268,11.935S153.109,373.25,157.408,375.795z M239.551,293.651c-2.545-4.299-5.642-8.31-9.268-11.935
			c-3.625-3.625-7.637-6.723-11.936-9.268l145.231-145.23l21.203,21.203L239.551,293.651z M407.606,128.838l-24.444-24.444
			l35.338-49.473L457.079,93.5L407.606,128.838z"/>
	</g>
</g>
<g>
	<g>
		<polygon points="230.283,366.527 230.283,366.528 230.283,366.528 		"/>
	</g>
</g>
<g>
</g>
<g>
</g>
<g>
</g>
<g>
</g>
<g>
</g>
<g>
</g>
<g>
</g>
<g>
</g>
<g>
</g>
<g>
</g>
<g>
</g>
<g>
</g>
<g>
</g>
<g>
</g>
<g>
</g>
</svg>
