<?xml version="1.0" encoding="iso-8859-1"?>
<!-- Generator: Adobe Illustrator 19.0.0, SVG Export Plug-In . SVG Version: 6.00 Build 0)  -->
<svg version="1.1" id="Capa_1" xmlns="http://www.w3.org/2000/svg" xmlns:xlink="http://www.w3.org/1999/xlink" x="0px" y="0px"
	 viewBox="0 0 512 512" style="enable-background:new 0 0 512 512;" xml:space="preserve">
<g>
	<g>
		<path d="M448.411,169.55l-21.195,21.195L321.247,84.776l21.194-21.194L278.859,0l-169.55,169.551l63.581,63.582l21.195-21.195
			l20.15,20.15L25.082,388.703c-31.419,26.183-33.688,73.852-4.667,102.873c29.098,29.097,76.724,26.713,102.904-4.704
			l156.584-189.115l20.15,20.15l-21.194,21.194l63.582,63.582l169.55-169.551L448.411,169.55z M172.89,190.744l-21.195-21.193
			L278.859,42.388l21.194,21.193C293.29,70.344,179.923,183.71,172.89,190.744z M100.263,467.721
			c-14.805,17.767-41.91,19.404-58.654,2.661c-16.512-16.513-15.35-43.645,2.625-58.624l144.911-119.985l31.073,31.073
			L100.263,467.721z M239.415,299.66l-27.083-27.084l23.188-19.199c8.077,8.077,15.019,15.018,23.095,23.095L239.415,299.66z
			 M215.277,190.745c10.257-10.257,74.696-74.696,84.776-84.776l105.969,105.969c-10.257,10.257-74.696,74.696-84.776,84.776
			L215.277,190.745z M342.44,360.295l-21.194-21.193c6.763-6.763,120.129-120.129,127.163-127.163l21.194,21.194L342.44,360.295z"/>
	</g>
</g>
<g>
	<g>
		<path d="M466.566,422.082H315.704c-24.79,0-44.959,20.169-44.959,44.959V512h240.78v-44.959
			C511.525,442.251,491.356,422.082,466.566,422.082z M481.552,482.027H300.717v-14.986c0-8.263,6.723-14.986,14.986-14.986h150.862
			c8.263,0,14.986,6.723,14.986,14.986V482.027z"/>
	</g>
</g>
<g>
</g>
<g>
</g>
<g>
</g>
<g>
</g>
<g>
</g>
<g>
</g>
<g>
</g>
<g>
</g>
<g>
</g>
<g>
</g>
<g>
</g>
<g>
</g>
<g>
</g>
<g>
</g>
<g>
</g>
</svg>
