<?xml version="1.0" encoding="iso-8859-1"?>
<!-- Generator: Adobe Illustrator 19.0.0, SVG Export Plug-In . SVG Version: 6.00 Build 0)  -->
<svg version="1.1" id="Capa_1" xmlns="http://www.w3.org/2000/svg" xmlns:xlink="http://www.w3.org/1999/xlink" x="0px" y="0px"
	 viewBox="0 0 511.999 511.999" style="enable-background:new 0 0 511.999 511.999;" xml:space="preserve">
<g>
	<g>
		<path d="M499.786,376.127c0-19.537-12.529-36.194-29.972-42.38V121.365h-26.85L238.992,0L12.213,136.297l91.943,55.723v132.959
			l7.68,4.288c2.331,1.302,57.879,31.873,127.194,31.873c69.316,0,124.863-30.573,127.194-31.873l7.68-4.288V192.79l65.938-39.563
			v180.518c-17.443,6.186-29.972,22.844-29.972,42.38c0,11.506,4.35,22.011,11.484,29.972c-7.134,7.961-11.484,18.466-11.484,29.972
			v75.929h89.916V436.07c0-11.506-4.35-22.011-11.484-29.972C495.437,398.138,499.786,387.632,499.786,376.127z M343.932,306.925
			c-16.423,7.682-57.348,24.242-104.902,24.242c-47.327,0-88.426-16.589-104.902-24.262v-96.722l104.863,63.554l104.941-62.964
			V306.925z M239.07,238.738L70.217,136.404L239.069,34.922l145.281,86.441h-88.68c-8.059-17.626-30.067-29.972-56.64-29.972
			c-33.614,0-59.944,19.748-59.944,44.958c0,25.21,26.33,44.958,59.944,44.958c26.572,0,48.581-12.346,56.64-29.972h89.07
			L239.07,238.738z M269.002,136.351c0,6.11-11.676,14.986-29.972,14.986s-29.972-8.876-29.972-14.986s11.676-14.986,29.972-14.986
			C257.326,121.365,269.002,130.239,269.002,136.351z M469.814,482.028h-29.972v-45.957c0-8.263,6.723-14.986,14.986-14.986
			c8.263,0,14.986,6.723,14.986,14.986V482.028z M454.828,391.113c-8.263,0-14.986-6.723-14.986-14.986s6.723-14.986,14.986-14.986
			c8.263,0,14.986,6.723,14.986,14.986S463.092,391.113,454.828,391.113z"/>
	</g>
</g>
<g>
</g>
<g>
</g>
<g>
</g>
<g>
</g>
<g>
</g>
<g>
</g>
<g>
</g>
<g>
</g>
<g>
</g>
<g>
</g>
<g>
</g>
<g>
</g>
<g>
</g>
<g>
</g>
<g>
</g>
</svg>
