<?xml version="1.0" encoding="iso-8859-1"?>
<!-- Generator: Adobe Illustrator 19.0.0, SVG Export Plug-In . SVG Version: 6.00 Build 0)  -->
<svg version="1.1" id="Capa_1" xmlns="http://www.w3.org/2000/svg" xmlns:xlink="http://www.w3.org/1999/xlink" x="0px" y="0px"
	 viewBox="0 0 512 512" style="enable-background:new 0 0 512 512;" xml:space="preserve">
<g>
	<g>
		<rect y="150" width="106" height="30"/>
	</g>
</g>
<g>
	<g>
		<path d="M121,0C87.916,0,61,26.916,61,60h30c0-16.542,13.458-30,30-30s30,13.458,30,30s-13.458,30-30,30H0v30h121
			c33.084,0,60-26.916,60-60S154.084,0,121,0z"/>
	</g>
</g>
<g>
	<g>
		<polygon points="323.465,179.585 313.106,208.047 341.582,218.417 351.94,189.931 		"/>
	</g>
</g>
<g>
	<g>
		<polygon points="379.847,200.106 369.494,228.552 397.914,238.938 408.365,210.468 		"/>
	</g>
</g>
<g>
	<g>
		<polygon points="267.079,159.062 256.725,187.538 285.204,197.885 295.559,169.409 		"/>
	</g>
</g>
<g>
	<g>
		<path d="M492.253,391.468c-3.048,1.017-6.245,1.532-9.504,1.532c-16.542,0-30-13.458-30-30h-0.026l1.084-1.212l-27.697-24.765
			l59.116-162.421l-28.191-10.261l20.521-56.381l-56.381-20.521l20.521-56.382L357.124,0.274l-20.521,56.382l-56.382-20.521
			L259.7,92.516l-28.104-10.229L171.334,244.71l-36.078,1.135l4.44,141.181c-5.008,3.751-11.223,5.975-17.947,5.975
			c-16.542,0-30-13.458-30-30h-30c0,16.262-14.196,30-31,30c-3.621,0-7.153-0.634-10.498-1.884L0,383.549V512h512V384.879
			L492.253,391.468z M375.054,38.726l28.19,10.26l-10.26,28.191l-28.191-10.26L375.054,38.726z M298.15,74.586l109.725,39.937
			l3.038,1.106l28.19,10.26l-10.26,28.19L324.01,115.923l-36.12-13.147L298.15,74.586z M249.352,120.675l0.087,0.032l197.336,71.824
			l-44.751,122.954l-84.303-75.379l-114.009,3.586L249.352,120.675z M411.447,364.155l-25.313,28.311
			c-13.866-2.637-24.385-14.843-24.385-29.465h-30c0,16.542-13.458,30-30,30c-8.017,0-15.303-3.167-20.691-8.308l37.654-103.456
			L411.447,364.155z M290.521,270.976L257.027,363h-15.278c0,16.542-13.458,30-30,30s-30-13.458-30-30h-12.794l-2.771-88.114
			L290.521,270.976z M482,482H30v-59.004c0.249,0.003,0.499,0.004,0.749,0.004c16.003,0,31.19-6.185,42.766-17.415
			c1.056-1.025,2.069-2.079,3.039-3.162C87.562,415.026,103.741,423,121.749,423c17.901,0,33.997-7.881,45-20.354
			c11.003,12.473,27.099,20.354,45,20.354s33.997-7.881,45-20.354c11.003,12.473,27.099,20.354,45,20.354s33.997-7.881,45-20.354
			c11.003,12.473,27.099,20.354,45,20.354c16.003,0,31.19-6.185,42.766-17.415c1.056-1.025,2.069-2.079,3.039-3.162
			c10.854,12.428,26.739,20.354,44.446,20.572V482z"/>
	</g>
</g>
<g>
</g>
<g>
</g>
<g>
</g>
<g>
</g>
<g>
</g>
<g>
</g>
<g>
</g>
<g>
</g>
<g>
</g>
<g>
</g>
<g>
</g>
<g>
</g>
<g>
</g>
<g>
</g>
<g>
</g>
</svg>
