<svg id="Capa_1" enable-background="new 0 0 512 512" height="512" viewBox="0 0 512 512" width="512" xmlns="http://www.w3.org/2000/svg"><g><path d="m332 61h-90v90h90zm-30 60h-30v-30h30z"/><path d="m452 61h-90v90h90zm-30 60h-30v-30h30z"/><path d="m332 181h-90v90h90zm-30 60h-30v-30h30z"/><path d="m452 181h-90v90h90zm-30 60h-30v-30h30z"/><path d="m332 301h-90v90h90zm-30 60h-30v-30h30z"/><path d="m452 301h-90v90h90zm-30 60h-30v-30h30z"/><path d="m182 0v512h330v-512zm210 482h-30v-30h30zm-60 0h-30v-30h30zm150 0h-60v-60h-150v60h-60v-452h270z"/><path d="m0 90h90c16.542 0 30 13.458 30 30h30v-120h-150zm30-60h90v38.052c-8.83-5.119-19.08-8.052-30-8.052h-60z"/><path d="m0 270h90c16.542 0 30 13.458 30 30h30v-120h-150zm30-60h90v38.052c-8.83-5.119-19.08-8.052-30-8.052h-60z"/></g></svg>