<svg id="Capa_1" enable-background="new 0 0 512 512" height="512" viewBox="0 0 512 512" width="512" xmlns="http://www.w3.org/2000/svg"><g><path d="m512 269.268h-41.417l16.401-45.061-28.191-10.261 51.303-140.954-28.191-10.261-51.303 140.954-28.19-10.26-27.605 75.843h-237.613l-27.605-75.843-28.19 10.26-51.303-140.953-28.192 10.26 51.303 140.954-28.191 10.261 16.401 45.061h-41.417v150h61v30h30v-30h330v30h30v-30h61zm-91.659-37.392 28.191 10.261-9.875 27.131h-31.925zm-356.873 10.261 28.191-10.261 13.609 37.392h-31.925zm418.532 147.131h-452v-90h452z"/><path d="m256 106.92c39.431 0 76.448 15.31 104.234 43.109l21.219-21.208c-33.453-33.469-78.007-51.901-125.453-51.901s-92 18.432-125.453 51.901l21.219 21.208c27.786-27.8 64.803-43.109 104.234-43.109z"/><path d="m339.028 171.24c-45.781-45.782-120.275-45.782-166.057 0l21.213 21.213c34.086-34.085 89.545-34.085 123.631 0z"/><path d="m215.394 213.662 21.213 21.213c10.693-10.693 28.094-10.693 38.787 0l21.213-21.213c-10.846-10.847-25.268-16.82-40.606-16.82s-29.762 5.973-40.607 16.82z"/><path d="m61 329.268h60v30h-60z"/><path d="m151 329.268h60v30h-60z"/><path d="m241 329.268h60v30h-60z"/></g></svg>