<?xml version="1.0" encoding="iso-8859-1"?>
<!-- Generator: Adobe Illustrator 19.0.0, SVG Export Plug-In . SVG Version: 6.00 Build 0)  -->
<svg version="1.1" id="Capa_1" xmlns="http://www.w3.org/2000/svg" xmlns:xlink="http://www.w3.org/1999/xlink" x="0px" y="0px"
	 viewBox="0 0 512 512" style="enable-background:new 0 0 512 512;" xml:space="preserve">
<g>
	<g>
		<path d="M451.598,297.131l-58.742,63.957v-29.115H237.233c-8.294,0-11.584-5.928-16.948-9.935
			c-29.047-25.562-69.203-32.757-104.661-20.054H0v209.923c9.237,0,338.341,0,347.872,0c32.862,0,64.251-15.695,83.969-41.985
			L512,357.533L451.598,297.131z M90.967,481.917c-19.53,0-41.833,0-60.978,0V331.972h60.978V481.917z M407.745,452.067
			c-14.09,18.693-36.46,29.849-59.873,29.849H120.956V332.107c26.423-11.566,57.454-6.973,79.518,12.442
			c3.98,2.684,14.932,17.412,36.76,17.412h125.634v29.129c-1.578,0.553-3.246,0.86-4.944,0.86c-14.781,0-115.672,0-132.005,0v29.989
			c16.051,0,117.335,0,132.005,0c12.438,0,24.436-5.22,32.915-14.322l61.681-67.155l20.326,20.326L407.745,452.067z"/>
	</g>
</g>
<g>
	<g>
		<path d="M455.488,150.039c6.119-13.977,9.764-29.108,9.764-45.741c0-57.214-40.666-104.204-97.175-104.204
			c-30.581,0-57.106,14.483-76.707,41.882c-1.992,2.785-3.814,5.568-5.474,8.3c-1.66-2.732-3.482-5.516-5.474-8.3
			c-19.601-27.399-46.126-41.882-76.707-41.882c-56.531,0-97.175,47.011-97.175,104.204c0,15.6,3.166,30.661,9.717,45.741H90.967
			v29.989h42.719c28.802,39.727,79.743,78.994,142.389,133.286l9.82,8.511l9.82-8.511
			c73.759-63.926,118.107-101.018,142.049-133.286h43.059v-29.989H455.488z M285.879,282.163
			c-47.52-40.842-87.067-72.63-113.49-102.135h32.807l22.578-45.156l58.122,87.183l58.122-87.183l22.578,45.056h32.014
			C374.232,206.478,319.792,252.822,285.879,282.163z M421.661,150.039h-36.534l-37.4-74.799l-61.832,92.751l-61.834-92.752
			l-37.4,74.8h-36.726c-8.7-14.906-13.408-29.837-13.408-45.74c0-42.31,28.884-74.215,67.186-74.215
			c20.541,0,37.983,9.649,51.839,28.68c11.251,15.452,15.858,31.434,15.891,31.551l14.299,51.547l14.591-51.505
			c0.045-0.16,4.652-16.141,15.903-31.593c13.856-19.03,31.297-28.679,51.839-28.679c38.303,0,67.186,31.905,67.186,74.215
			C435.261,119.703,431.048,134.382,421.661,150.039z"/>
	</g>
</g>
<g>
</g>
<g>
</g>
<g>
</g>
<g>
</g>
<g>
</g>
<g>
</g>
<g>
</g>
<g>
</g>
<g>
</g>
<g>
</g>
<g>
</g>
<g>
</g>
<g>
</g>
<g>
</g>
<g>
</g>
</svg>
