<?xml version="1.0" standalone="no"?>
<!DOCTYPE svg PUBLIC "-//W3C//DTD SVG 20010904//EN"
 "http://www.w3.org/TR/2001/REC-SVG-20010904/DTD/svg10.dtd">
<svg version="1.0" xmlns="http://www.w3.org/2000/svg"
 width="380.000000pt" height="380.000000pt" viewBox="0 0 380.000000 380.000000"
 preserveAspectRatio="xMidYMid meet">
<metadata>
Created by potrace 1.16, written by Peter Selinger 2001-2019
</metadata>
<g transform="translate(0.000000,380.000000) scale(0.100000,-0.100000)"
fill="#000000" stroke="none">
<path d="M791 3094 c-21 -27 -21 -31 -21 -919 0 -805 2 -893 16 -899 25 -10
58 20 60 54 2 34 19 58 49 70 17 7 15 9 -11 9 -38 1 -66 -27 -68 -68 -1 -16
-5 -33 -9 -37 -4 -4 -7 398 -7 892 0 687 3 903 12 912 7 7 9 12 6 12 -4 0 -16
-12 -27 -26z"/>
<path d="M1910 2384 c-155 -42 -290 -186 -320 -343 -14 -74 -13 -117 5 -186
35 -131 109 -224 222 -278 62 -29 76 -32 168 -32 89 0 107 3 160 28 33 15 86
49 118 73 60 47 78 50 97 15 13 -26 -5 -29 -38 -5 -20 14 -22 14 -22 -3 0
-107 107 -175 210 -133 22 9 34 10 43 1 11 -9 10 -25 -8 -94 -12 -45 -25 -88
-29 -95 -4 -7 -1 -15 8 -18 12 -5 15 -34 16 -162 1 -86 5 -201 8 -254 5 -64 4
-98 -3 -98 -5 0 -4 -4 3 -8 7 -5 17 -37 23 -73 12 -73 11 -71 31 -64 9 4 24
34 33 68 10 34 27 70 38 79 19 17 19 18 1 18 -11 0 -15 4 -9 8 6 4 10 69 11
157 0 111 4 159 15 185 l15 34 42 -81 c52 -101 123 -274 152 -370 22 -73 36
-87 60 -58 16 19 15 194 -1 260 -7 28 -27 81 -45 119 -44 91 -61 168 -46 201
l12 25 54 -36 c46 -30 58 -34 75 -24 26 14 28 56 2 69 -10 6 -36 8 -57 5 -37
-5 -38 -5 -19 11 20 16 20 17 -9 40 -26 21 -28 27 -22 64 7 48 40 139 59 166
13 17 16 16 55 -19 22 -20 43 -49 47 -64 7 -36 -13 -93 -48 -131 -15 -18 -25
-36 -22 -41 12 -19 100 -11 135 13 55 37 74 70 78 140 8 122 -45 233 -152 319
-73 58 -182 112 -162 79 10 -15 -44 -31 -107 -31 l-62 0 25 21 25 21 -40 -6
c-114 -16 -161 -45 -202 -123 -18 -32 -41 -67 -51 -76 -18 -16 -21 -16 -63 14
-24 17 -47 34 -51 38 -4 4 4 35 18 69 62 154 32 329 -77 447 -106 115 -251
158 -399 119z m212 -93 c58 -24 131 -91 162 -145 83 -146 53 -333 -71 -446
-64 -58 -123 -80 -217 -80 -75 0 -140 23 -206 72 -68 50 -130 182 -130 278 0
60 29 152 65 207 83 126 255 175 397 114z"/>
<path d="M1227 2347 c-28 -5 -46 -14 -44 -21 8 -23 84 -67 137 -78 72 -14 155
8 208 56 l36 33 -54 12 c-45 10 -55 9 -71 -5 -29 -26 -92 -30 -131 -7 -28 17
-40 18 -81 10z"/>
<path d="M1195 1160 c57 -84 58 -173 5 -267 -43 -75 -117 -121 -220 -137 -14
-2 0 -4 30 -4 135 -3 246 102 258 243 6 84 -34 176 -90 206 -10 6 -4 -10 17
-41z"/>
</g>
</svg>
